<svg id="Layer_1" enable-background="new 0 0 512 512" height="512" viewBox="0 0 512 512" width="512" xmlns="http://www.w3.org/2000/svg"><g><path d="m256.234 49.126c-4.204 0-7.611 3.407-7.611 7.612v68.841c0 4.204 3.408 7.612 7.611 7.612 4.204 0 7.612-3.407 7.612-7.612v-68.841c-.001-4.204-3.408-7.612-7.612-7.612z" fill="#bdc4ff"/><g><g><g><path d="m457.663 472.398h-403.326v-219.615c0-11.968 9.702-21.67 21.67-21.67h359.986c11.968 0 21.67 9.702 21.67 21.67z" fill="#6967bf"/><path d="m435.993 231.113h-40.595c11.968 0 21.67 9.702 21.67 21.669v219.615h40.595v-219.614c0-11.968-9.702-21.67-21.67-21.67z" fill="#5b59b2"/><path d="m90.331 267.279h331.338v205.119h-331.338z" fill="#ffffd3"/></g></g><g><g><g><path d="m178.898 508.688v-100.176c0-25.139.03-45.519.03-45.519h156.029v45.519 100.176z" fill="#d4d9ff"/><g><g><path d="m256.189 389.9c14.866 0 26.918-12.047 26.918-26.907v-33.927c-8.643-2.035-17.654-3.116-26.918-3.116s-18.275 1.081-26.918 3.116v33.927c0 14.86 12.052 26.907 26.918 26.907z" fill="#ff8ccc"/></g><ellipse cx="256.19" cy="227.034" fill="#d4d9ff" rx="116.978" ry="116.928"/><path d="m256.19 110.107c-6.923 0-13.705.602-20.297 1.754 54.93 9.606 96.68 57.516 96.68 115.174s-41.75 105.567-96.68 115.173c6.592 1.153 13.375 1.754 20.297 1.754 64.605 0 116.978-52.35 116.978-116.928s-52.374-116.927-116.978-116.927z" fill="#c7cdff"/><g><g><path d="m139.026 267.342h-.008c-10.234 0-18.529-8.296-18.529-18.529v-43.557c0-10.234 8.296-18.529 18.529-18.529h.008c10.234 0 18.529 8.296 18.529 18.529v43.557c.001 10.233-8.295 18.529-18.529 18.529z" fill="#ff8ccc"/></g><g><path d="m372.982 267.342h-.008c-10.234 0-18.529-8.296-18.529-18.529v-43.557c0-10.234 8.296-18.529 18.529-18.529h.008c10.234 0 18.529 8.296 18.529 18.529v43.557c0 10.233-8.296 18.529-18.529 18.529z" fill="#ff8ccc"/></g></g><g fill="#bdc4ff"><path d="m221.414 206.198c-4.204 0-7.612 3.407-7.612 7.611v47.908c0 4.204 3.408 7.612 7.612 7.612s7.611-3.407 7.611-7.612v-47.908c.001-4.204-3.407-7.611-7.611-7.611z"/><path d="m290.965 206.198c-4.204 0-7.611 3.407-7.611 7.611v47.908c0 4.204 3.407 7.612 7.611 7.612s7.612-3.407 7.612-7.612v-47.908c0-4.204-3.407-7.611-7.612-7.611z"/></g><g><path d="m256.189 174.056c14.866 0 26.918-12.047 26.918-26.907v-33.927c-8.643-2.035-17.654-3.116-26.918-3.116s-18.275 1.081-26.918 3.116v33.927c0 14.86 12.052 26.907 26.918 26.907z" fill="#ffd54d"/></g></g></g><g><g><path d="m332.945 385.034h33.723v123.654h-33.723z" fill="#ff8ccc"/></g><circle cx="350.391" cy="385.034" fill="#ffd54d" r="38.079"/><path d="m350.391 346.954c-7.462 0-14.422 2.147-20.297 5.855 10.685 6.744 17.782 18.655 17.782 32.224s-7.097 25.48-17.782 32.224c5.876 3.709 12.836 5.856 20.297 5.856 21.031 0 38.079-17.049 38.079-38.079 0-21.031-17.049-38.08-38.079-38.08z" fill="#ffc919"/></g><g><g><path d="m147.234 383.965h33.723v124.723h-33.723z" fill="#ff8ccc"/></g><circle cx="163.512" cy="385.034" fill="#ffd54d" r="38.079"/><path d="m163.512 346.954c-7.462 0-14.422 2.147-20.297 5.855 10.685 6.744 17.782 18.655 17.782 32.224s-7.097 25.48-17.782 32.224c5.876 3.709 12.836 5.856 20.297 5.856 21.031 0 38.079-17.049 38.079-38.079.001-21.031-17.048-38.08-38.079-38.08z" fill="#ffc919"/></g></g><g><ellipse cx="256.234" cy="44.879" fill="#ff8ccc" rx="20.564" ry="20.555"/><g fill="#e8f3ff"><g><path d="m194.904 78.485c-1.948 0-3.895-.743-5.382-2.229-8.387-8.387-13.006-19.53-13.006-31.378 0-11.846 4.619-22.99 13.006-31.378 2.972-2.971 7.792-2.971 10.764 0 2.973 2.973 2.973 7.792 0 10.765-5.511 5.511-8.547 12.832-8.547 20.613s3.035 15.101 8.547 20.613c2.972 2.972 2.973 7.792.001 10.764-1.487 1.487-3.435 2.23-5.383 2.23z"/><path d="m155.726 89.759c-1.948 0-3.896-.743-5.382-2.229-23.517-23.517-23.517-61.784 0-85.301 2.972-2.971 7.792-2.971 10.764 0 2.973 2.973 2.973 7.792 0 10.765-17.582 17.582-17.582 46.189 0 63.771 2.973 2.973 2.973 7.792 0 10.765-1.486 1.485-3.434 2.229-5.382 2.229z"/></g><g><path d="m317.096 78.485c-1.947 0-3.896-.743-5.383-2.229-2.972-2.973-2.972-7.792 0-10.765 11.366-11.365 11.366-29.859 0-41.226-2.972-2.972-2.972-7.792.001-10.764 2.972-2.972 7.792-2.971 10.764.001 17.3 17.301 17.3 45.453 0 62.754-1.486 1.486-3.434 2.229-5.382 2.229z"/><path d="m356.274 89.759c-1.947 0-3.896-.743-5.383-2.229-2.972-2.973-2.972-7.792 0-10.765 17.583-17.582 17.583-46.189 0-63.771-2.972-2.973-2.972-7.792 0-10.765 2.973-2.971 7.792-2.971 10.765 0 23.517 23.517 23.517 61.784 0 85.301-1.486 1.485-3.435 2.229-5.382 2.229z"/></g></g></g></g><path d="m486.525 512h-461.05c-11.968 0-21.67-9.702-21.67-21.67v-17.933h504.389v17.933c0 11.968-9.701 21.67-21.669 21.67z" fill="#7776d0"/><path d="m467.6 472.397v17.933c0 11.968-9.702 21.67-21.67 21.67h40.595c11.968 0 21.67-9.702 21.67-21.67v-17.933z" fill="#6967bf"/></g></g></svg>