<svg id="Flat" enable-background="new 0 0 512 512" height="512" viewBox="0 0 512 512" width="512" xmlns="http://www.w3.org/2000/svg"><g><path d="m176 488h-8c-75.111 0-136-78.8-136-176 0-56 56-200 56-224 0 13.255-10.745 24-24 24s-24-10.745-24-24c0-26.51 21.49-48 48-48s48 21.49 48 48c0 24-56 168-56 224 0 70.692 39.4 128 88 128z" fill="#464c4f"/><path d="m424 488 32-288s24-24 24-56-16-56-16-56l-8-64-40 32c-16-8-48-8-48-8s-24 0-48 8l-40-32-8 64s-16 24-16 56 24 56 24 56c-64 0-152 80-152 184s48 104 48 104z" fill="#606669"/><path d="m392 112h48s0 32-24 32-24-32-24-32z" fill="#f78a25"/><path d="m296 112h48s0 32-24 32-24-32-24-32z" fill="#f78a25"/><path d="m392 184c-1.017-.001-2.025-.195-2.969-.574-9.254-3.7-16.172-7.431-21.029-11.383-4.857 3.952-11.775 7.682-21.029 11.383-4.102 1.641-8.758-.355-10.399-4.457s.355-8.758 4.457-10.399c15.937-6.374 19.2-10.911 19.816-12.15 1.976-3.952 6.782-5.553 10.734-3.576 1.548.774 2.802 2.029 3.576 3.576.62 1.239 3.879 5.776 19.816 12.15 4.103 1.638 6.102 6.292 4.464 10.396-1.214 3.042-4.161 5.037-7.437 5.034z" fill="#464c4f"/><path d="m429.33 440-5.33 48h-96l-8-48z" fill="#757c80"/><g fill="#464c4f"><path d="m368 488v-208c0-4.418 3.582-8 8-8s8 3.582 8 8v208z"/><path d="m336 488h-16.1l-31.81-206.78c-.674-4.369 2.321-8.456 6.69-9.13s8.456 2.321 9.13 6.69l32 208c.059.404.09.812.09 1.22z"/><path d="m335.84 486.43-7.84 1.57h-8.15l-2.83-14.12c-6.799-33.613-36.307-57.804-70.6-57.88h-30.42c-4.418 0-8-3.582-8-8s3.582-8 8-8h30.42c41.914.093 77.978 29.658 86.29 70.74z"/></g></g></svg>