<?xml version="1.0" encoding="utf-8"?>
<!-- Svg Vector Icons : http://www.onlinewebfonts.com/icon -->
<!DOCTYPE svg PUBLIC "-//W3C//DTD SVG 1.1//EN" "http://www.w3.org/Graphics/SVG/1.1/DTD/svg11.dtd">
<svg version="1.1" xmlns="http://www.w3.org/2000/svg" xmlns:xlink="http://www.w3.org/1999/xlink" x="0px" y="0px" viewBox="0 0 1000 1000" enable-background="new 0 0 1000 1000" xml:space="preserve">
<metadata> Svg Vector Icons : http://www.onlinewebfonts.com/icon </metadata>
<g><path d="M500,10C229.4,10,10,229.4,10,500c0,270.6,219.4,490,490,490c270.6,0,490-219.4,490-490C990,229.4,770.6,10,500,10L500,10L500,10z M496.8,842.9c-39.9,0-72.3-31.8-72.3-70.9c0-39.1,32.3-70.9,72.3-70.9c39.9,0,72.3,31.8,72.3,70.9C569.2,811.1,536.8,842.9,496.8,842.9L496.8,842.9L496.8,842.9z M691,442c-14.2,22.3-44.3,52.6-90.5,91c-23.9,19.8-38.7,35.8-44.5,48c-5.7,12-8.4,33.7-7.9,64.9h-103c-0.2-14.8-0.5-23.8-0.5-27c0-33.3,5.5-60.7,16.6-82.2c11-21.5,33.1-45.7,66.1-72.5c33-26.9,52.8-44.5,59.3-52.8c9.9-13.2,15-27.7,15-43.5c0-22-8.9-40.8-26.5-56.5c-17.6-15.7-41.5-23.5-71.3-23.5c-28.8,0-52.9,8.2-72.3,24.6c-19.4,16.3-36,52.4-40,74.7c-3.7,21.1-105.2,30-104-12.7c1.2-42.7,23.4-89,61.5-122.6c38.1-33.6,88.1-50.4,149.9-50.4c65.1,0,116.8,17,155.3,51c38.5,34,57.7,73.6,57.7,118.7C712.2,396,705.1,419.7,691,442L691,442L691,442z"/></g>
</svg>